<svg xmlns="http://www.w3.org/2000/svg" width="320" height="320" viewBox="0 0 320 320" role="img" data-artifact-kind="stable-id-specific-fallback">
<style>.outline{stroke:#101820;stroke-width:7;stroke-linejoin:round;stroke-linecap:round}.thin{stroke:#101820;stroke-width:4;stroke-linejoin:round;stroke-linecap:round}.guide{stroke:#8b928d;stroke-width:3;fill:none;stroke-dasharray:9 7}.label{font-family:Arial,sans-serif;font-size:18px;fill:#101820}.small{font-family:Arial,sans-serif;font-size:13px;fill:#101820}</style>
<rect width="320" height="320" fill="#f1eee5"/><rect x="12" y="12" width="296" height="296" rx="12" fill="none" class="thin"/><text x="160" y="34" text-anchor="middle" class="small">系统 Demo 侧袭职责敌人灰盒</text><g data-stable-asset-id="asset.system_demo.enemy.flanker" data-shape-token="asymmetric-high-zigzag-shadow" transform="translate(160 250) scale(1)"><ellipse cx="0" cy="0" rx="62" ry="17" fill="none" class="guide"/><path d="M-18-54L-25-122L2-150L24-112L17-56Z" fill="#687272" class="outline"/><path d="M-16-128L-104-94L-55-58L-8-83M18-116L116-82L48-42L10-77" fill="#d7d0bb" class="outline"/><path d="M-95-91L-55-78L-76-62M108-80L62-66L82-48" class="thin" fill="none"/><path d="M0-54V-8" class="thin" fill="none"/></g><g data-anchor-mark="true" transform="translate(160 250)"><circle r="9" fill="none" class="thin"/><path d="M-14 0H14M0-14V14" class="thin" fill="none"/></g><text x="160" y="300" text-anchor="middle" class="small">fallback.system_demo.enemy.flanker</text></svg>
